<?xml version="1.0" encoding="UTF-8" standalone="no"?>
<!-- Created with Inkscape (http://www.inkscape.org/) -->

<svg
   width="1920"
   height="1080"
   viewBox="0 0 1920 1080"
   version="1.1"
   id="svg1"
   inkscape:export-filename="MenuIcon.svg"
   inkscape:export-xdpi="96"
   inkscape:export-ydpi="96"
   inkscape:version="1.3.2 (091e20e, 2023-11-25, custom)"
   sodipodi:docname="All_elements.svg"
   xmlns:inkscape="http://www.inkscape.org/namespaces/inkscape"
   xmlns:sodipodi="http://sodipodi.sourceforge.net/DTD/sodipodi-0.dtd"
   xmlns:xlink="http://www.w3.org/1999/xlink"
   xmlns="http://www.w3.org/2000/svg"
   xmlns:svg="http://www.w3.org/2000/svg">
  <sodipodi:namedview
     id="namedview1"
     pagecolor="#505050"
     bordercolor="#ffffff"
     borderopacity="1"
     inkscape:showpageshadow="0"
     inkscape:pageopacity="0"
     inkscape:pagecheckerboard="1"
     inkscape:deskcolor="#505050"
     inkscape:document-units="px"
     inkscape:zoom="3.0847533"
     inkscape:cx="1689.7623"
     inkscape:cy="34.524641"
     inkscape:window-width="2560"
     inkscape:window-height="1411"
     inkscape:window-x="2551"
     inkscape:window-y="-9"
     inkscape:window-maximized="1"
     inkscape:current-layer="layer2" />
  <defs
     id="defs1">
    <inkscape:path-effect
       effect="fillet_chamfer"
       id="path-effect12"
       is_visible="true"
       lpeversion="1"
       nodesatellites_param="F,0,0,1,0,0,0,1 @ F,0,0,1,0,0,0,1 @ F,0,0,1,0,0,0,1 @ F,0,0,1,0,0,0,1 @ F,0,0,1,0,0,0,1 @ F,0,0,1,0,0,0,1"
       radius="0"
       unit="px"
       method="auto"
       mode="F"
       chamfer_steps="1"
       flexible="false"
       use_knot_distance="true"
       apply_no_radius="true"
       apply_with_radius="true"
       only_selected="false"
       hide_knots="false" />
    <linearGradient
       id="linearGradient4"
       inkscape:collect="always">
      <stop
         style="stop-color:#000000;stop-opacity:1;"
         offset="0.76131684"
         id="stop4" />
      <stop
         style="stop-color:#4d4d4d;stop-opacity:0;"
         offset="1"
         id="stop5" />
    </linearGradient>
    <linearGradient
       id="linearGradient2"
       inkscape:collect="always">
      <stop
         style="stop-color:#368ecb;stop-opacity:1;"
         offset="0.0164609"
         id="stop3" />
      <stop
         style="stop-color:#3fd7c0;stop-opacity:1;"
         offset="1"
         id="stop2" />
    </linearGradient>
    <linearGradient
       inkscape:collect="always"
       xlink:href="#linearGradient2"
       id="linearGradient3"
       x1="960"
       y1="691.32458"
       x2="960.02399"
       y2="166.98349"
       gradientUnits="userSpaceOnUse"
       spreadMethod="reflect" />
    <linearGradient
       inkscape:collect="always"
       xlink:href="#linearGradient4"
       id="linearGradient5"
       x1="960"
       y1="1080"
       x2="960"
       y2="644.45996"
       gradientUnits="userSpaceOnUse" />
  </defs>
  <g
     inkscape:label="Capa 1"
     inkscape:groupmode="layer"
     id="layer1"
     style="display:inline">
    <rect
       style="display:inline;fill:#4d4d4d;fill-opacity:0.503685;stroke:none;stroke-width:9.9;stroke-linecap:round;stroke-linejoin:round;stroke-miterlimit:0.4;stroke-dasharray:none"
       id="rect1"
       width="106.16696"
       height="101.41953"
       x="906.9165"
       y="459.90308"
       ry="27.554878"
       rx="25.558739"
       inkscape:export-filename="PoloIcon.svg"
       inkscape:export-xdpi="96"
       inkscape:export-ydpi="96" />
    <path
       style="display:inline;fill:#17202c;fill-opacity:1;stroke:#202020;stroke-width:0.108819;stroke-linecap:round;stroke-linejoin:round;stroke-miterlimit:0"
       d="M 0.05440963,0.05440963 H 1920.0986 V 166.98349 H 0.05440963 Z"
       id="path6"
       sodipodi:nodetypes="ccccc" />
    <g
       id="g5"
       transform="matrix(0.62263718,0,0,0.61139598,40.047632,40.046772)"
       style="display:inline">
      <ellipse
         style="fill:#4d4d4d;fill-opacity:1;stroke:#202020;stroke-width:0.153;stroke-linecap:round;stroke-linejoin:round;stroke-miterlimit:0"
         id="path2"
         ry="76.103149"
         rx="74.727791"
         cy="76.103149"
         cx="74.727791" />
      <path
         style="fill:#17202c;fill-opacity:1;stroke:#fffdfd;stroke-width:10;stroke-linecap:round;stroke-linejoin:round;stroke-miterlimit:0;stroke-dasharray:none;stroke-opacity:1"
         d="m 34.22779,51.939828 h 81"
         id="path3"
         sodipodi:nodetypes="cc" />
      <path
         style="fill:#17202c;fill-opacity:1;stroke:#fffdfd;stroke-width:10;stroke-linecap:round;stroke-linejoin:round;stroke-miterlimit:0;stroke-dasharray:none;stroke-opacity:1"
         d="M 34.227791,76.103149 H 115.22779"
         id="path4"
         sodipodi:nodetypes="cc" />
      <path
         style="fill:#17202c;fill-opacity:1;stroke:#fffdfd;stroke-width:10;stroke-linecap:round;stroke-linejoin:round;stroke-miterlimit:0;stroke-dasharray:none;stroke-opacity:1"
         d="M 34.227791,100.26647 H 115.22779"
         id="path5"
         sodipodi:nodetypes="cc" />
    </g>
    <rect
       style="display:inline;fill:url(#linearGradient3);fill-opacity:1;fill-rule:nonzero;stroke:none;stroke-width:9.9;stroke-linecap:round;stroke-linejoin:round;stroke-miterlimit:0.4;stroke-dasharray:none"
       id="rect2"
       width="1919.9391"
       height="524.34106"
       x="0.054409631"
       y="166.98349"
       rx="0"
       ry="9.7656425e-09"
       inkscape:export-filename="Background.svg"
       inkscape:export-xdpi="96"
       inkscape:export-ydpi="96" />
    <rect
       style="display:inline;fill:url(#linearGradient5);fill-opacity:1;fill-rule:nonzero;stroke:none;stroke-width:9.9;stroke-linecap:round;stroke-linejoin:round;stroke-miterlimit:0.4;stroke-dasharray:none"
       id="rect3"
       width="1920"
       height="435.54004"
       x="0"
       y="644.45996"
       ry="9.7656425e-09"
       inkscape:export-filename="Shadow.svg"
       inkscape:export-xdpi="96"
       inkscape:export-ydpi="96" />
    <path
       style="display:inline;fill:#17202c;fill-opacity:1;stroke:#202020;stroke-width:0.166044;stroke-linecap:round;stroke-linejoin:round;stroke-miterlimit:0"
       d="M 0.00652194,691.32457 H 1919.9935 V 1079.9935 H 0.00652194 Z"
       id="path1"
       sodipodi:nodetypes="ccccc" />
    <g
       id="g10"
       transform="translate(3.6676218)"
       inkscape:export-filename="CancelMenu.svg"
       inkscape:export-xdpi="96"
       inkscape:export-ydpi="96">
      <ellipse
         style="fill:#4d4d4d;fill-opacity:1;stroke:#202020;stroke-width:0.0943996;stroke-linecap:round;stroke-linejoin:round;stroke-miterlimit:0"
         id="ellipse1"
         ry="46.52916"
         rx="46.528301"
         cy="86.575935"
         cx="-74.799431" />
      <path
         style="fill:#17202c;fill-opacity:1;stroke:#fffdfd;stroke-width:7.15712;stroke-linecap:round;stroke-linejoin:round;stroke-miterlimit:0;stroke-dasharray:none;stroke-opacity:1"
         d="m -98.22592,69.058649 46.852978,35.034571"
         id="path9"
         sodipodi:nodetypes="cc" />
      <path
         style="fill:#17202c;fill-opacity:1;stroke:#fffdfd;stroke-width:7.15712;stroke-linecap:round;stroke-linejoin:round;stroke-miterlimit:0;stroke-dasharray:none;stroke-opacity:1"
         d="M -51.372942,69.058649 -98.22592,104.09322"
         id="path10"
         sodipodi:nodetypes="cc" />
    </g>
    <g
       id="g17"
       transform="translate(-2.7554877,-0.70744214)"
       inkscape:export-filename="ResetIcon.svg"
       inkscape:export-xdpi="96"
       inkscape:export-ydpi="96">
      <ellipse
         style="display:inline;fill:#4d4d4d;fill-opacity:1;stroke:#202020;stroke-width:0.0943996;stroke-linecap:round;stroke-linejoin:round;stroke-miterlimit:0"
         id="ellipse10"
         ry="46.52916"
         rx="46.528301"
         cy="88.461891"
         cx="-207.97995"
         transform="translate(2.7554877,0.70744214)" />
      <circle
         style="fill:none;fill-opacity:1;stroke:#ffffff;stroke-width:5.42054;stroke-linecap:round;stroke-linejoin:round;stroke-miterlimit:0.4;stroke-dasharray:none;stroke-opacity:1"
         id="path12"
         r="28.851278"
         cy="89.169334"
         cx="-205.22446" />
      <path
         style="fill:#4d4d4d;fill-opacity:1;stroke:#4d4d4d;stroke-width:5.42054;stroke-linecap:round;stroke-linejoin:round;stroke-miterlimit:0.4;stroke-dasharray:none;stroke-opacity:1"
         d="m -203.85784,60.35043 c 0.0665,-0.0091 0.13247,-0.02213 0.19934,-0.02736 0.13319,-0.01042 0.2672,0 0.40081,0 0.33401,0 0.66803,0 1.00204,0 0.63622,0 1.26917,-0.0052 1.90388,0.02505 0.0667,0.0031 0.13391,-0.0063 0.20041,0 0.10934,0.01041 0.21638,0.03918 0.32566,0.05011 0.21458,0.02145 0.43747,-0.02674 0.65133,0 0.13489,0.01686 0.26716,0.0504 0.40082,0.07515 0.0918,0.017 0.18664,0.02165 0.27556,0.05011 0.12113,0.03876 0.22958,0.111542 0.35071,0.150306 0.0889,0.02846 0.18654,0.02199 0.27557,0.0501 0.0712,0.0225 0.12682,0.08741 0.20041,0.100204 0.12339,0.02146 0.25051,0 0.37576,0 0.17536,0 0.35071,0 0.52607,0 0.42587,0 0.85174,0 1.2776,0 0.26532,0 0.55904,-0.03457 0.80164,0.100204 0.031,0.01721 0.0483,0.0521 0.0752,0.07515 0.0317,0.02717 0.073,0.04345 0.1002,0.07515 0.0559,0.06527 0.0715,0.158326 0.12526,0.225459 0.45408,0.454086 -0.0924,-0.118828 0.17535,0.225459 0.0962,0.123636 0.14726,0.104351 0.20041,0.25051 0.17218,0.473513 -0.2553,-0.340263 0.15031,0.425868 0.0522,0.09857 0.12989,0.173266 0.17535,0.275561 0.058,0.130423 -0.0164,0.07068 0.0752,0.175358 0.0389,0.04444 0.0875,0.07989 0.12526,0.125255 0.046,0.05518 0.0728,0.126228 0.12525,0.175357 0.0829,0.07768 0.18741,0.128788 0.27556,0.200408 0.0458,0.03724 0.0789,0.08878 0.12525,0.125256 0.0277,0.0218 0.23927,0.171608 0.32567,0.200408 0.0238,0.008 0.0639,0.02241 0.0752,0 0.0154,-0.03079 0.018,-0.0665 0.025,-0.100204 0.12477,-0.59889 0.1002,-0.349059 0.1002,-0.876786 0,-0.121865 0.0164,-0.337082 -0.0501,-0.450919 -0.0339,-0.05815 -0.11004,-0.08388 -0.17536,-0.100204 -0.0906,-0.02264 -0.19381,0.005 -0.27556,0.05011 -0.53804,0.296847 -0.57735,0.407934 -0.90184,0.951939 -0.18379,0.308121 -0.57693,0.994058 -0.67638,1.402858 -0.15524,0.638239 0.46114,1.129423 1.0271,1.20245 0.14907,0.01923 0.30068,0.0048 0.45091,0 0.10882,-0.0035 0.22238,0.0094 0.32567,-0.02505 0.18535,-0.06178 0.35323,-0.219218 0.42586,-0.400816 0.30209,-0.755191 -0.0246,-1.169655 -0.52607,-1.703471 -0.14963,-0.159289 -0.29349,-0.324375 -0.45091,-0.47597 -0.14492,-0.139552 -0.29842,-0.25051 -0.50102,-0.25051 -0.0418,0 -0.097,-0.03078 -0.12526,0 -0.24012,0.261949 -0.17247,0.672215 -0.15031,0.976991 0.0171,0.235561 -0.005,0.490179 0.10021,0.701429 0.26941,0.53882 0.65406,0.856482 1.20245,1.027092 0.17704,0.05508 0.36751,0.04945 0.55112,0.07515 0.2339,0.03275 0.46617,0.07929 0.70143,0.100204 0.1414,0.01257 0.28392,0 0.42587,0 0.1169,0 0.23452,0.01291 0.35071,0 0.0372,-0.0041 0.0668,-0.0334 0.1002,-0.05011 0.0167,-0.0084 0.047,-0.0066 0.0501,-0.02505 0.007,-0.042 8.7e-4,-0.09171 -0.025,-0.125255 -0.33584,-0.429569 -0.69098,-0.844033 -1.05214,-1.252552 -0.14861,-0.168102 -0.31416,-0.320539 -0.47597,-0.47597 -0.47285,-0.454186 -0.91594,-0.943175 -1.42791,-1.352756 -0.32765,-0.262122 -0.71998,-0.431184 -1.07719,-0.651326 -0.36095,-0.222442 -0.70271,-0.477578 -1.07719,-0.676378 -0.30411,-0.161436 -0.62882,-0.281965 -0.95195,-0.400817 -0.62085,-0.22836 -1.58027,-0.529575 -2.25459,-0.651327 -0.44048,-0.07953 -0.92923,-0.08666 -1.37781,-0.07515 -0.12549,0.0032 -0.26148,-0.02689 -0.37577,0.02505 -0.0866,0.03939 -0.12001,0.147984 -0.17535,0.225458 -0.26639,0.372936 -0.36354,0.655312 -0.30061,1.127298 0.0854,0.640785 0.15996,0.80745 0.57617,1.327704 0.24001,0.300016 0.48711,0.599106 0.77658,0.851735 0.36426,0.317905 0.83853,0.454668 1.30266,0.526073 0.41189,0.06337 1.26488,0.122514 1.70346,0.02505 0.27859,-0.06191 0.54279,-0.180435 0.80164,-0.300613 0.21044,-0.0977 0.42978,-0.194395 0.60123,-0.350714 0.16289,-0.148522 0.34222,-0.597266 0.35071,-0.826685 0.005,-0.145492 -0.16251,-0.48817 -0.25051,-0.576173 -0.13076,-0.130759 -1.06506,-0.704052 -1.10224,-0.72648 -0.72861,-0.439477 -0.97204,-0.623202 -1.77863,-0.851736 -0.2034,-0.05763 -0.41615,-0.07686 -0.62628,-0.100204 -0.0913,-0.01014 -0.1837,0 -0.27556,0 -0.0418,0 -0.0938,-0.0275 -0.12525,0 -0.13262,0.116037 -0.0756,0.53678 -0.0501,0.601225 0.14323,0.361176 0.31193,0.720915 0.55112,1.027093 0.18629,0.238438 0.45938,0.394627 0.70144,0.576174 0.43155,0.323666 0.63589,0.475128 1.15235,0.576174 0.19736,0.03862 0.40035,0.04054 0.60122,0.05011 0.18489,0.0088 0.61065,0.02449 0.80163,-0.07515 0.0942,-0.04916 0.15907,-0.142465 0.22546,-0.225458 0.035,-0.04374 0.0642,-0.09538 0.0752,-0.150307 0.0436,-0.218254 -0.0171,-0.63448 -0.12526,-0.826684 -0.0289,-0.05146 -0.0817,-0.165148 -0.12525,-0.125255 -0.0933,0.08549 -0.0853,0.238235 -0.12801,0.357352"
         id="path14" />
      <path
         style="fill:#ffffff;fill-opacity:1;stroke:#ffffff;stroke-width:5.42054;stroke-linecap:round;stroke-linejoin:round;stroke-miterlimit:0.4;stroke-dasharray:none;stroke-opacity:1"
         d="M -214.63597,52.655881 -200.169,58.112 -211.02862,70.022639 Z"
         id="path13"
         sodipodi:nodetypes="cccc" />
      <path
         style="fill:#4d4d4d;fill-opacity:1;stroke:#4d4d4d;stroke-width:5.42054;stroke-linecap:round;stroke-linejoin:round;stroke-miterlimit:0.4;stroke-dasharray:none;stroke-opacity:1"
         d="m -191.63391,64.130835 c -0.0919,0.0835 -0.23024,0.134943 -0.27566,0.250497 -0.055,0.139892 -0.0298,0.3036 0,0.450919 0.11289,0.557803 0.30444,1.097362 0.42587,1.653369 0.0376,0.172094 0.0273,0.3514 0.0501,0.526071 0.0481,0.368911 0.13536,0.732365 0.17535,1.102246 0.0334,0.309209 0.0111,0.645966 0.0752,0.951939 0.0411,0.196498 0.11915,0.383448 0.17535,0.576174 0.0607,0.208116 0.12019,0.416626 0.17536,0.626276 0.32829,0.280106 0.14024,0.71127 0.22546,1.052144 0.0683,0.273057 0.18249,0.529544 0.25051,0.801632"
         id="path15" />
      <path
         style="fill:#4d4d4d;fill-opacity:1;stroke:#4d4d4d;stroke-width:5.42054;stroke-linecap:round;stroke-linejoin:round;stroke-miterlimit:0.4;stroke-dasharray:none;stroke-opacity:1"
         d="m -185.12073,62.684676 -6.76378,8.735998"
         id="path16" />
      <path
         style="fill:#4d4d4d;fill-opacity:1;stroke:#4d4d4d;stroke-width:5.42054;stroke-linecap:round;stroke-linejoin:round;stroke-miterlimit:0.4;stroke-dasharray:none;stroke-opacity:1"
         d="m -189.05375,64.030618 c 0.0167,-0.04176 0.0539,-0.08044 0.0501,-0.125256 -0.0135,-0.161574 -0.0715,-0.316399 -0.10021,-0.475969 -0.0464,-0.258059 -0.0762,-0.519007 -0.12525,-0.776582 -0.11225,-0.589351 -0.27556,-1.148797 -0.27556,-1.753573"
         id="path17" />
    </g>
  </g>
  <g
     inkscape:groupmode="layer"
     id="layer2"
     inkscape:label="Capa 2">
    <rect
       style="display:inline;fill:#4d4d4d;fill-opacity:1;stroke:none;stroke-width:6.2;stroke-linecap:round;stroke-linejoin:miter;stroke-miterlimit:0;stroke-opacity:1"
       id="rect4"
       width="232.43356"
       height="16.208754"
       x="1621.1"
       y="75.415001"
       ry="9.7656425e-09"
       inkscape:export-filename="ProgressBar.svg"
       inkscape:export-xdpi="96"
       inkscape:export-ydpi="96" />
    <rect
       style="display:inline;fill:#b1b1b1;fill-opacity:1;stroke:none;stroke-width:6.2;stroke-linecap:round;stroke-linejoin:miter;stroke-miterlimit:0;stroke-opacity:1"
       id="rect9"
       width="232.43356"
       height="16.208754"
       x="1512.6001"
       y="75.415001"
       ry="9.7656425e-09" />
    <rect
       style="display:inline;fill:#17202c;fill-opacity:1;stroke:#17202c;stroke-width:6.2;stroke-linecap:round;stroke-linejoin:round;stroke-miterlimit:0.4;stroke-opacity:1"
       id="rect7"
       width="252.94498"
       height="25.817034"
       x="1368.155"
       y="70.610863"
       ry="9.7656425e-09"
       inkscape:export-filename="ProgressCover.svg"
       inkscape:export-xdpi="96"
       inkscape:export-ydpi="96" />
    <rect
       style="display:inline;fill:#17202c;fill-opacity:1;stroke:#17202c;stroke-width:6.2;stroke-linecap:round;stroke-linejoin:round;stroke-miterlimit:0.4;stroke-opacity:1"
       id="rect8"
       width="66.466431"
       height="25.817032"
       x="1853.5336"
       y="70.610863"
       ry="9.7656425e-09" />
  </g>
</svg>
