<?xml version="1.0" encoding="UTF-8" standalone="no"?>
<!-- Created with Inkscape (http://www.inkscape.org/) -->

<svg
   width="286.84222"
   height="286.84219"
   viewBox="0 0 286.84222 286.84219"
   version="1.1"
   id="svg1"
   xmlns="http://www.w3.org/2000/svg"
   xmlns:svg="http://www.w3.org/2000/svg">
  <defs
     id="defs1" />
  <g
     id="layer3"
     transform="translate(-551.46375,357.88123)">
    <g
       id="g21">
      <path
         style="fill:#e3fffd;fill-opacity:1;stroke:none;stroke-width:1.5;stroke-linecap:round;stroke-linejoin:round;stroke-miterlimit:0"
         id="path19"
         d="m 584.06878,-252.21154 c -7.57423,5.31455 -37.7903,-2.87759 -46.25581,0.85719 -8.4655,3.73478 -22.78497,31.57496 -31.81643,33.58644 -9.03146,2.01148 -33.81248,-17.12026 -43.06283,-16.90938 -9.25035,0.21088 -33.13378,20.45203 -42.24752,18.8542 -9.11375,-1.59782 -24.68702,-28.75653 -33.31393,-32.10166 -8.6269,-3.34513 -38.43827,6.21546 -46.24681,1.25158 -7.80854,-4.96387 -11.80318,-36.01489 -18.49328,-42.40675 -6.6901,-6.39187 -37.89089,-8.96736 -43.20545,-16.54158 -5.31455,-7.57422 2.87759,-37.7903 -0.85719,-46.25581 -3.73479,-8.4655 -31.57496,-22.78497 -33.58644,-31.81643 -2.01149,-9.03146 17.12026,-33.81248 16.90938,-43.06283 -0.21088,-9.25034 -20.45203,-33.13378 -18.8542,-42.24752 1.59782,-9.11375 28.75653,-24.68702 32.10166,-33.31392 3.34513,-8.62691 -6.21546,-38.43828 -1.25158,-46.24682 4.96387,-7.80854 36.01489,-11.80318 42.40675,-18.49328 6.39187,-6.69009 8.96736,-37.89089 16.54158,-43.20544 7.57422,-5.31456 37.7903,2.87758 46.25581,-0.8572 8.4655,-3.73478 22.78497,-31.57496 31.81643,-33.58644 9.03146,-2.01148 33.81248,17.12026 43.06283,16.90938 9.25034,-0.21088 33.13378,-20.45203 42.24752,-18.8542 9.11374,1.59782 24.68702,28.75654 33.31392,32.10166 8.62691,3.34513 38.43828,-6.21546 46.24682,-1.25158 7.80854,4.96388 11.80318,36.01489 18.49328,42.40676 6.69009,6.39186 37.89089,8.96735 43.20544,16.54157 5.31456,7.57423 -2.87758,37.7903 0.8572,46.25581 3.73478,8.4655 31.57496,22.78497 33.58644,31.81643 2.01148,9.03146 -17.12026,33.81248 -16.90938,43.06283 0.21088,9.25034 20.45202,33.13378 18.8542,42.24752 -1.59783,9.11375 -28.75654,24.68702 -32.10166,33.31393 -3.34513,8.6269 6.21546,38.43827 1.25158,46.24681 -4.96388,7.80854 -36.01489,11.80318 -42.40676,18.49328 -6.39186,6.6901 -8.96735,37.89089 -16.54157,43.20545 z"
         transform="matrix(0.64716573,-0.10623234,0.10623234,0.64716573,444.00134,113.32453)" />
      <path
         style="fill:#2d6ea1;fill-opacity:1;stroke:none;stroke-width:1.5;stroke-linecap:round;stroke-linejoin:round;stroke-miterlimit:0"
         id="path20"
         d="m 695.00971,-314.04027 a 23.84,23.84 0 0 1 23.71491,23.95174 23.84,23.84 0 0 1 -23.93903,23.72773 23.84,23.84 0 0 1 -23.74055,-23.92633 23.84,23.84 0 0 1 23.91363,-23.75335" />
      <path
         style="fill:#2d6ea1;fill-opacity:1;stroke:#2d6ea1;stroke-width:26.5;stroke-linecap:round;stroke-linejoin:round;stroke-miterlimit:0;stroke-dasharray:none;stroke-opacity:1"
         d="m 694.88489,-231.97708 -1e-5,98.10888"
         id="path21" />
    </g>
  </g>
</svg>
